<?xml version="1.0" encoding="utf-8"?>
<svg xmlns="http://www.w3.org/2000/svg" viewBox="200 330 620 110">
 <g id="logo-group" transform="translate(12.298)">
  <path style="font-variant-ligatures:normal" d="m330.36 353.64c14.17-14.342 19.642-18.144 19.642-18.144h-5.184c-1.0944 2.9376-15.034 16.013-17.51 18.259v-11.923c0-3.9168 0.9216-6.336 0.9216-6.336h-5.0688s0.864 2.4192 0.864 6.336v27.648c0 3.9168-0.864 6.336-0.864 6.336h5.0688s-0.9216-2.4192-0.9216-6.336v-14.17l19.296 20.506h6.2784c-12.614-10.08-22.522-22.176-22.522-22.176z" stroke="#373545" stroke-miterlimit="2" stroke-width="0.8" fill="#373545"/>
  <path style="font-variant-ligatures:normal" d="m366.18 373.34v-17.914s6.9696-0.1728 14.342 0.4032l0.7488-2.6496s-9.8496 0.4608-15.091 0.288v-15.494c6.624-1.44 19.238 0 19.238 0l0.6912-2.4768h-24.077s0.864 2.3616 0.864 6.336v27.648c0 3.9168-0.864 6.336-0.864 6.336h24.365l0.8064-2.9952s-14.4 1.9584-21.024 0.5184z" stroke="#373545" stroke-miterlimit="2" stroke-width="0.8" fill="#373545"/>
  <path style="font-variant-ligatures:normal" d="m401.23 373.34v-31.507c0-3.9168 0.9216-6.336 0.9216-6.336h-5.0688s0.864 2.4192 0.864 6.336v27.648c0 3.9168-0.864 6.336-0.864 6.336h24.365l0.7488-2.9952s-14.342 1.9584-20.966 0.5184z" stroke="#373545" stroke-miterlimit="2" stroke-width="0.8" fill="#373545"/>
  <path style="font-variant-ligatures:normal" d="m435.38 373.34v-31.507c0-3.9168 0.9216-6.336 0.9216-6.336h-5.0688s0.864 2.4192 0.864 6.336v27.648c0 3.9168-0.864 6.336-0.864 6.336h24.365l0.7488-2.9952s-14.342 1.9584-20.966 0.5184z" stroke="#373545" stroke-miterlimit="2" stroke-width="0.8" fill="#373545"/>
  <path style="font-variant-ligatures:normal" d="m491.06 335.5h-4.1472s-0.6912 2.4192-3.456 6.336l-10.944 15.955-9.7344-15.955c-2.4192-3.9168-2.9952-6.336-2.9952-6.336h-5.0688s2.3616 2.4192 4.7232 6.336l10.829 17.798v9.8496c0 3.9168-0.864 6.336-0.864 6.336h5.0688s-0.864-2.3616-0.864-6.336v-9.8496l12.211-17.798c2.7072-3.9168 5.2416-6.336 5.2416-6.336z" stroke="#373545" stroke-miterlimit="2" stroke-width="0.8" fill="#373545"/>
  <path style="font-variant-ligatures:normal" d="m354.49 394.43 0.7488-2.4768h-32.083l0.6912 2.4768s7.0272-1.44 13.709 0v31.507c0 3.9744-0.9216 6.336-0.9216 6.336h5.0688s-0.864-2.4192-0.864-6.336v-31.507c6.5664-1.44 13.651 0 13.651 0z" stroke="#373545" stroke-miterlimit="2" stroke-width="0.8" fill="#373545"/>
  <path style="font-variant-ligatures:normal" d="m368.35 429.79v-17.914s6.9696-0.1728 14.342 0.4032l0.7488-2.6496s-9.8496 0.4608-15.091 0.288v-15.494c6.624-1.44 19.238 0 19.238 0l0.6912-2.4768h-24.077s0.864 2.3616 0.864 6.336v27.648c0 3.9168-0.864 6.336-0.864 6.336h24.365l0.8064-2.9952s-14.4 1.9584-21.024 0.5184z" stroke="#373545" stroke-miterlimit="2" stroke-width="0.8" fill="#373545"/>
  <path style="font-variant-ligatures:normal" d="m420.15 430.54c-13.363 0-20.966-8.2368-20.966-18.49 0-11.405 5.8752-18.547 18.95-18.547 2.1888 0 7.0848 0.1728 12.902 2.7072l0.864-2.592c-7.4304-2.016-10.541-2.0736-14.688-2.0736-13.248 0-21.485 9.216-21.485 20.506s6.9696 20.448 23.731 20.448c8.2944 0 14.976-3.3408 14.976-3.3408l-1.0368-2.3616c-2.7072 2.1312-8.928 3.744-13.248 3.744z" stroke="#373545" stroke-miterlimit="2" stroke-width="0.8" fill="#373545"/>
  <path style="font-variant-ligatures:normal" d="m474.74 425.93v-27.648c0-3.9168 0.9216-6.336 0.9216-6.336h-5.1264s0.9216 2.4192 0.9216 6.336v11.808h-23.44v-11.808c0-3.9168 0.9216-6.336 0.9216-6.336h-5.0688s0.864 2.4192 0.864 6.336v27.648c0 3.9168-0.864 6.336-0.864 6.336h5.0688s-0.9216-2.3616-0.9216-6.336v-13.882h23.443v13.882c0 3.9744-0.9216 6.336-0.9216 6.336h5.1264s-0.9216-2.4192-0.9216-6.336z" stroke="#373545" stroke-miterlimit="2" stroke-width="0.8" fill="#373545"/>
  <path style="font-variant-ligatures:normal" d="m522.69 391.95h-4.1472s0.864 2.4192 0.864 6.336v28.454l-27.936-34.79h-3.2256s0.864 2.4192 0.864 6.336v27.648c0 3.9168-0.864 6.336-0.864 6.336h4.1472s-0.9216-2.4192-0.9216-6.336v-29.84l27.936 34.733 1.2096 1.44h1.152v-33.984c0-3.9168 0.9216-6.336 0.9216-6.336z" stroke="#373545" stroke-miterlimit="2" stroke-width="0.8" fill="#373545"/>
  <path style="font-variant-ligatures:normal" d="m554.35 391.66c-12.442 0-20.333 9.1008-20.333 20.39 0 11.29 7.488 20.448 20.333 20.448 11.29 0 20.333-9.1584 20.333-20.448s-6.8544-20.39-20.333-20.39zm-16.877 20.39c0-11.174 5.0688-18.547 16.877-18.547 10.598 0 16.877 8.2944 16.877 18.547s-5.5872 18.605-16.877 18.605c-10.31 0-16.877-8.352-16.877-18.605z" stroke="#373545" stroke-miterlimit="2" stroke-width="0.8" fill="#373545"/>
  <path style="font-variant-ligatures:normal" d="m590.28 429.79v-31.507c0-3.9168 0.9216-6.336 0.9216-6.336h-5.0688s0.864 2.4192 0.864 6.336v27.648c0 3.9168-0.864 6.336-0.864 6.336h24.365l0.7488-2.9952s-14.342 1.9584-20.966 0.5184z" stroke="#373545" stroke-miterlimit="2" stroke-width="0.8" fill="#373545"/>
  <path style="font-variant-ligatures:normal" d="m635.81 391.66c-12.442 0-20.333 9.1008-20.333 20.39 0 11.29 7.488 20.448 20.333 20.448 11.29 0 20.333-9.1584 20.333-20.448s-6.8544-20.39-20.333-20.39zm-16.877 20.39c0-11.174 5.0688-18.547 16.877-18.547 10.598 0 16.877 8.2944 16.877 18.547s-5.5872 18.605-16.877 18.605c-10.31 0-16.877-8.352-16.877-18.605z" stroke="#373545" stroke-miterlimit="2" stroke-width="0.8" fill="#373545"/>
  <path style="font-variant-ligatures:normal" d="m703.37 415.16h-5.0688s0.9792 2.4192 0.9792 6.336v3.9744c0 1.2672-0.5184 3.6864-3.2832 4.4928-1.8432 0.4032-3.6288 0.6336-5.2416 0.6336-13.363 0-20.966-8.2944-20.966-18.547 0-11.405 5.8752-18.547 18.95-18.547 2.1888 0 7.0848 0.1728 12.902 2.7072l0.864-2.5344c-7.4304-2.0736-10.541-2.1312-14.688-2.1312-13.248 0-21.485 9.216-21.485 20.506s6.9696 20.448 23.731 20.448c3.5136 0 6.6816-0.576 9.216-1.2672 1.2672-0.3456 2.9952-0.864 3.8592-1.2096 0 0-0.6336-3.3984-0.6336-6.2208v-2.304c0-3.9168 0.864-6.336 0.864-6.336z" stroke="#373545" stroke-miterlimit="2" stroke-width="0.8" fill="#373545"/>
  <path style="font-variant-ligatures:normal" d="m718.95 425.93v-27.648c0-3.9168 0.9216-6.336 0.9216-6.336h-5.0688s0.864 2.4192 0.864 6.336v27.648c0 3.9168-0.864 6.336-0.864 6.336h5.0688s-0.9216-2.4192-0.9216-6.336z" stroke="#373545" stroke-miterlimit="2" stroke-width="0.8" fill="#373545"/>
  <path style="font-variant-ligatures:normal" d="m736.67 429.79v-17.914s6.9696-0.1728 14.342 0.4032l0.7488-2.6496s-9.8496 0.4608-15.091 0.288v-15.494c6.624-1.44 19.238 0 19.238 0l0.6912-2.4768h-24.077s0.864 2.3616 0.864 6.336v27.648c0 3.9168-0.864 6.336-0.864 6.336h24.365l0.8064-2.9952s-14.4 1.9584-21.024 0.5184z" stroke="#373545" stroke-miterlimit="2" stroke-width="0.8" fill="#373545"/>
  <path style="font-variant-ligatures:normal" d="m769.76 400.3c0-4.6656 5.7024-6.7968 9.2736-6.7968 4.6656 0 8.928 2.88 8.928 2.88l0.3456-0.1728 0.288-2.6496s-3.6864-2.016-8.6976-2.016c-10.138 0-13.075 6.048-13.075 9.6768 0 11.981 20.736 10.714 20.736 21.37 0 4.6656-3.9744 7.9488-10.022 7.9488-8.5824 0-10.138-5.8752-10.138-5.8752l-0.4608-0.1152-0.6912 5.0688s3.5136 2.88 10.426 2.88c9.216 0 14.17-4.896 14.17-11.29 0-11.405-21.082-9.6768-21.082-20.909z" stroke="#373545" stroke-miterlimit="2" stroke-width="0.8" fill="#373545"/>
  <path id="icon" stroke-width="0.45" fill="#7f7b9a" d="m253.97 340.34c-0.17864-0.005-0.35954 0.005-0.47736 0.0275-0.10408 0.0198-0.3115 0.0758-0.46062 0.1246-0.14912 0.049-0.39582 0.14962-0.54846 0.22393-0.15262 0.0743-0.35053 0.18239-0.4401 0.24044-0.0893 0.0581-0.28498 0.22518-0.43485 0.3713-0.14962 0.14636-9.9608 10.02-21.802 21.941-11.842 11.921-21.553 21.704-21.581 21.739-0.028 0.0356-0.0545 0.11484-0.0603 0.17989-0.007 0.0813 0.004 0.13986 0.0353 0.19516 0.0248 0.0433 2.0967 2.144 4.6044 4.6678 3.8213 3.8466 4.5801 4.5994 4.6912 4.653 0.0728 0.0353 0.1919 0.0768 0.26496 0.0921 0.0728 0.0155 0.21492 0.028 0.31575 0.028 0.10058 0 0.27923-0.0168 0.39682-0.0373 0.1176-0.0205 0.33552-0.0771 0.48465-0.12611 0.14887-0.0488 0.38656-0.14386 0.52794-0.21141 0.14136-0.0676 0.35529-0.18565 0.47565-0.26271 0.1854-0.11885 0.3783-0.30124 1.2695-1.2012 0.57798-0.58374 10.379-10.452 21.78-21.929s20.749-20.904 20.773-20.949c0.024-0.0445 0.0438-0.1261 0.0438-0.18115-0.00025-0.0553-0.0213-0.13435-0.0473-0.17564-0.0258-0.0413-2.0827-2.1242-4.5706-4.6287-2.484-2.5-4.554-4.5742-4.5945-4.6053s-0.1395-0.0807-0.216-0.11022c-0.1035-0.041-0.207-0.0555-0.4275-0.0616zm-1.0726 2.6176c0.008-0.00025 0.031 0.0185 0.05 0.0413 0.0188 0.0228 0.38906 0.35754 0.82242 0.74385 0.4336 0.38606 1.0078 0.89924 1.276 1.1402 0.26846 0.24119 0.64552 0.58369 0.83817 0.76162 0.19265 0.1779 0.56893 0.53267 0.83619 0.7884 0.26747 0.25571 0.68278 0.67329 0.92349 0.92799 0.24044 0.25446 0.57996 0.63374 0.75433 0.84245 0.17439 0.20892 0.41558 0.5184 0.53596 0.68805 0.12059 0.16964 0.29173 0.4351 0.38055 0.58972 0.0891 0.15463 0.20767 0.39532 0.26346 0.53492 0.0561 0.13961 0.12435 0.36204 0.15187 0.49441 0.0368 0.17765 0.0463 0.29424 0.0363 0.44486-0.008 0.11934-0.0408 0.28448-0.0786 0.39757-0.0358 0.10633-0.12535 0.32651-0.19891 0.48937-0.0736 0.16288-0.20941 0.42859-0.30173 0.59072-0.0923 0.16213-0.26397 0.4411-0.38106 0.62001-0.11735 0.17889-0.34003 0.49414-0.49491 0.70056-0.15487 0.20641-0.42984 0.55242-0.61101 0.76909-0.18115 0.21668-0.50616 0.58797-0.72234 0.8249-0.21618 0.23694-0.67478 0.71257-1.0191 1.0571-0.34452 0.34453-0.87921 0.86193-1.1884 1.1499-0.3095 0.28773-0.82143 0.75411-1.1379 1.0364-0.3165 0.28248-0.92475 0.81239-1.3513 1.1782-0.42685 0.36555-1.1862 1.008-1.6879 1.4279-0.5014 0.41958-1.3401 1.1224-1.8635 1.5618-0.52366 0.4391-1.1542 0.97402-1.4011 1.1884-0.24695 0.21442-0.64103 0.56322-0.8757 0.77512-0.23469 0.21167-0.84919 0.80838-1.3656 1.3261-0.51642 0.51741-6.5606 6.6015-13.432 13.519-6.871 6.9183-12.501 12.579-12.511 12.579s-1.4081-1.3991-3.1065-3.109c-1.6986-1.7099-3.396-3.42-3.772-3.8005l-0.68144-0.69075 20.65-20.794c11.357-11.436 20.657-20.794 20.665-20.794zm17.843 14.438c-0.13486 0.00099-0.34077 0.022-0.45787 0.047-0.1171 0.0248-0.30275 0.0801-0.41283 0.12285-0.11009 0.0428-0.28573 0.12785-0.39032 0.18915-0.10458 0.0613-0.25595 0.17114-0.33652 0.24445-0.0803 0.0731-9.2372 9.2862-20.349 20.474l-21.694 21.843c-0.82039 0.82642-1.532 1.5525-1.5815 1.6138s-0.11509 0.16012-0.14537 0.21967c-0.0303 0.0593-0.0613 0.16113-0.0691 0.22593-0.0113 0.0948 0.00025 0.15138 0.0578 0.28648l0.0716 0.16839 2.5878 2.6081c1.4234 1.4344 3.4983 3.5223 4.6112 4.64l2.0231 2.0319 0.18039 0.0883c0.0993 0.0483 0.2537 0.10658 0.34303 0.1291 0.0996 0.0253 0.26446 0.041 0.42534 0.041 0.14461 0 0.33026-0.0133 0.41283-0.0298 0.0826-0.0165 0.24019-0.059 0.35028-0.0943 0.11009-0.0356 0.25645-0.0921 0.32526-0.1256 0.0688-0.0335 0.21317-0.1191 0.32101-0.19041 0.16362-0.10808 3.7172-3.6742 21.58-21.655 11.761-11.839 21.588-21.737 21.837-21.996 0.34952-0.36229 0.46939-0.50391 0.52317-0.61699 0.0488-0.10258 0.0733-0.20016 0.0813-0.32401 0.009-0.14162 0.001-0.19941-0.0388-0.28773-0.0383-0.0846-1.1184-1.1859-4.5986-4.6894-2.5017-2.5182-4.6058-4.6224-4.675-4.676-0.0698-0.0535-0.18315-0.1226-0.25195-0.15312-0.0688-0.0308-0.20617-0.0741-0.30525-0.0966-0.10483-0.0238-0.28222-0.04-0.42534-0.039zm-0.56696 3.083c0.0155 0.003 0.57848 0.54167 1.251 1.1974 0.6723 0.65552 1.6506 1.6238 2.174 2.1517 0.52344 0.52767 1.1146 1.1341 1.3136 1.3476 0.19916 0.21342 0.56371 0.61299 0.81013 0.88821 0.24645 0.27497 0.56745 0.61673 0.71308 0.75911 0.14586 0.14261 0.35503 0.32726 0.46512 0.41058 0.11008 0.0836 0.27496 0.18639 0.36604 0.22893l0.16613 0.0773-0.0868 0.10008c-0.0475 0.055-0.14687 0.22393-0.22043 0.3753-0.0736 0.15137-0.19515 0.40607-0.27021 0.56619-0.0751 0.15987-0.20667 0.41333-0.29223 0.56295-0.0856 0.14962-0.26297 0.4351-0.39382 0.63477-0.13086 0.19941-0.36855 0.53716-0.52817 0.7506-0.15962 0.21317-0.45513 0.58473-0.65655 0.82566-0.20141 0.24069-0.50517 0.58972-0.67477 0.77562-0.16964 0.1859-0.50013 0.53469-0.73436 0.77562-0.23443 0.24069-0.6525 0.65727-0.92947 0.92574-0.27672 0.26821-0.6993 0.66901-0.93902 0.89019-0.23969 0.22117-0.6948 0.63225-1.0113 0.9135-0.3165 0.28122-0.96376 0.84393-1.4386 1.2502-0.47461 0.40658-1.4036 1.1939-2.0642 1.7499-0.66051 0.55593-1.4299 1.2067-1.7099 1.4462-0.27998 0.2392-0.71357 0.61574-0.96327 0.83669-0.24995 0.22093-0.62649 0.56043-0.83669 0.75433-0.21041 0.19416-6.476 6.4876-13.923 13.986l-13.541 13.635-2.533-2.5515c-1.3934-1.4021-3.0294-3.0519-3.6354-3.6667l-1.1016-1.116 20.599-20.742c11.329-11.408 20.613-20.74 20.626-20.737zm17.973 14.298c-0.0893-0.006-0.20191-0.007-0.2502-0.003-0.048 0.005-0.17189 0.021-0.27522 0.0365-0.10309 0.0153-0.28823 0.0608-0.41109 0.10083-0.12309 0.0403-0.33351 0.1306-0.46786 0.20091-0.16263 0.0851-0.31525 0.19115-0.45684 0.31825-0.11685 0.10459-9.9418 9.9878-21.833 21.962s-21.653 21.815-21.694 21.867c-0.0405 0.0525-0.10108 0.13486-0.13486 0.18315-0.0338 0.048-0.0756 0.14086-0.0928 0.20591-0.028 0.10584-0.0255 0.13661 0.0233 0.28773l0.0548 0.16939 2.7562 2.7772c1.516 1.5275 3.5831 3.6066 4.5936 4.6206 1.6288 1.634 1.856 1.853 2.0041 1.9305 0.0918 0.0483 0.25371 0.10534 0.35979 0.12711 0.10609 0.022 0.28198 0.0398 0.39081 0.0398 0.10884 0 0.29274-0.0165 0.40858-0.0368 0.11609-0.0203 0.30049-0.0666 0.41008-0.10283 0.10934-0.0365 0.27772-0.10509 0.37405-0.15237 0.0963-0.0473 0.24619-0.13336 0.33301-0.19091 0.11234-0.0746 6.3284-6.3162 21.455-21.543 11.714-11.791 21.54-21.689 21.837-21.995 0.41934-0.43209 0.5567-0.59022 0.61299-0.70479 0.0578-0.11784 0.0726-0.18114 0.0726-0.31325 0-0.13685-0.011-0.18089-0.0626-0.25295-0.0343-0.048-2.1034-2.1415-4.5981-4.6526-2.4943-2.511-4.5666-4.5882-4.6048-4.617-0.0383-0.0283-0.12785-0.0811-0.1994-0.11709-0.0716-0.0363-0.20042-0.0816-0.28648-0.10058-0.0861-0.019-0.22969-0.0398-0.31926-0.0458zm-0.81842 2.9346c0.0107-0.00077 0.37655 0.33301 0.81315 0.7416 0.43635 0.40882 1.0861 1.0213 1.4439 1.3613 0.35778 0.34002 0.95526 0.92623 1.3275 1.3025 0.37255 0.3763 0.8059 0.82517 0.96327 0.99756s0.39731 0.4426 0.53343 0.60048c0.13586 0.15788 0.42209 0.50639 0.63625 0.77486 0.21768 0.27246 0.53393 0.63148 0.71658 0.81315 0.18816 0.18689 0.38932 0.36179 0.47363 0.41132 0.0806 0.0475 0.20266 0.10534 0.27122 0.12836 0.0743 0.0253 0.11258 0.0495 0.0951 0.0605-0.0162 0.01-0.0681 0.0786-0.11535 0.15213-0.047 0.0736-0.17539 0.34427-0.28548 0.60196-0.11008 0.25746-0.29048 0.63099-0.40107 0.82967-0.11033 0.19891-0.30899 0.52618-0.4411 0.72756-0.1321 0.20141-0.36704 0.53491-0.52218 0.74133-0.15512 0.20641-0.41283 0.53244-0.57294 0.72432-0.15988 0.1919-0.46787 0.54643-0.68432 0.78786-0.21642 0.24169-0.7366 0.78313-1.1564 1.2035-0.41958 0.42033-0.98855 0.97204-1.264 1.226-0.27547 0.25395-0.76509 0.69754-1.0884 0.98554-0.32301 0.28798-0.97029 0.85145-1.4382 1.2523-0.46786 0.40082-1.4191 1.2062-2.1142 1.7894-0.6948 0.58347-1.5225 1.281-1.839 1.55-0.31651 0.26896-0.77815 0.6678-1.0258 0.88623-0.24769 0.21842-0.61047 0.54495-0.80612 0.72558-0.19566 0.18064-6.4418 6.4548-13.881 13.943l-13.525 13.615-2.0186-2.0304c-1.1102-1.1166-2.7667-2.781-3.6814-3.699l-1.6633-1.6688 0.2487-0.26271c0.13686-0.14461 9.4136-9.4896 20.615-20.767s20.375-20.504 20.386-20.505z"/>
 </g>
</svg>
